<svg width="65" height="89" viewBox="0 0 65 89" fill="none" xmlns="http://www.w3.org/2000/svg">
<path d="M32.4914 0.8414C15.6313 0.8414 0.28833 21.6493 0.28833 44.4914C0.28833 67.3335 15.6313 88.1414 32.4914 88.1414C49.3515 88.1414 64.6945 67.3335 64.6945 44.4914C64.6945 21.6493 49.3515 0.8414 32.4914 0.8414ZM10.7698 44.4914C10.7698 34.4581 14.6487 24.5455 20.1136 18.2014C19.5964 20.4942 19.3205 22.856 19.3205 25.2695C19.3205 33.9237 22.6995 42.0606 28.8022 48.1806C36.8012 56.1796 37.3184 68.8506 30.371 77.453C20.1653 75.5394 10.7698 60.1619 10.7698 44.4914ZM44.852 70.8158C47.1965 60.3343 44.3348 48.9219 36.1978 40.7849C28.1988 32.7859 27.6816 20.115 34.6291 11.5125C44.8175 13.4434 54.2302 28.8208 54.2302 44.4914C54.2302 54.5592 50.3341 64.489 44.852 70.8158Z" fill="black"/>
</svg>
