<svg width="691" height="547" viewBox="0 0 691 547" fill="none" xmlns="http://www.w3.org/2000/svg">
<g id="Icons">
<rect width="691" height="547" fill="white"/>
<g id="Icon Kaffee Bohnen">
<g id="Group">
<path id="Vector" d="M252.717 117.669C254.94 112.571 251.267 106.051 244.513 103.106C237.76 100.161 230.483 101.907 228.26 107.005C226.037 112.104 229.71 118.624 236.463 121.568C243.217 124.513 250.494 122.768 252.717 117.669Z" stroke="#3A3734" stroke-width="2" stroke-miterlimit="10" stroke-linecap="round" stroke-linejoin="round"/>
<path id="Vector_2" d="M229.15 106.76C229.15 106.76 235.04 113.31 239.64 112.73C244.24 112.15 246.72 113.96 251.98 118.98" stroke="#3A3734" stroke-width="2" stroke-miterlimit="10" stroke-linecap="round" stroke-linejoin="round"/>
</g>
<g id="Group_2">
<path id="Vector_3" d="M243.29 102.37C243.36 97.42 248.13 93.19 254.72 91.98C261.97 90.65 268.65 94.01 269.66 99.48C270.67 104.95 265.61 110.46 258.36 111.79C256.55 112.12 254.77 112.16 253.11 111.95" stroke="#3A3734" stroke-width="2" stroke-miterlimit="10" stroke-linecap="round" stroke-linejoin="round"/>
<path id="Vector_4" d="M269.05 100.18C269.05 100.18 260.5 98.04 257.02 101.09C253.53 104.14 250.79 103.98 243.62 102.75" stroke="#3A3734" stroke-width="2" stroke-miterlimit="10" stroke-linecap="round" stroke-linejoin="round"/>
</g>
<g id="Group_3">
<path id="Vector_5" d="M243.689 96.0254C250.36 94.8006 255.018 89.7254 254.093 84.6897C253.169 79.654 247.011 76.5647 240.34 77.7895C233.67 79.0143 229.011 84.0895 229.936 89.1252C230.861 94.161 237.018 97.2503 243.689 96.0254Z" stroke="#3A3734" stroke-width="2" stroke-miterlimit="10" stroke-linecap="round" stroke-linejoin="round"/>
<path id="Vector_6" d="M253.54 85.34C253.54 85.34 245.67 83.37 242.46 86.18C239.25 88.99 236.42 88.88 229.82 87.75" stroke="#3A3734" stroke-width="2" stroke-miterlimit="10" stroke-linecap="round" stroke-linejoin="round"/>
</g>
</g>
<g id="Icon Kaffee Schaufel">
<g id="Group_4">
<g id="Group_5">
<path id="Vector_7" d="M340.815 118.542C341.015 115.833 338.265 113.422 334.674 113.158C331.082 112.894 328.01 114.877 327.811 117.587C327.611 120.296 330.361 122.707 333.952 122.971C337.544 123.235 340.616 121.252 340.815 118.542Z" stroke="#3A3734" stroke-width="2" stroke-miterlimit="10" stroke-linecap="round" stroke-linejoin="round"/>
<path id="Vector_8" d="M328.19 117.33C328.19 117.33 331.97 119.4 333.99 118.38C336.02 117.37 337.45 117.8 340.69 119.27" stroke="#3A3734" stroke-width="2" stroke-miterlimit="10" stroke-linecap="round" stroke-linejoin="round"/>
</g>
<g id="Group_6">
<path id="Vector_9" d="M333.99 113.02C333.22 110.73 334.74 108 337.58 106.38C340.71 104.59 344.33 105.06 345.68 107.42C347.03 109.78 345.59 113.14 342.46 114.93C341.68 115.38 340.87 115.68 340.07 115.85" stroke="#3A3734" stroke-width="2" stroke-miterlimit="10" stroke-linecap="round" stroke-linejoin="round"/>
<path id="Vector_10" d="M345.52 107.83C345.52 107.83 341.23 108.23 340.12 110.2C339.01 112.17 337.72 112.54 334.21 113.14" stroke="#3A3734" stroke-width="2" stroke-miterlimit="10" stroke-linecap="round" stroke-linejoin="round"/>
</g>
<g id="Group_7">
<path id="Vector_11" d="M333.14 110.035C336.017 108.391 337.342 105.297 336.101 103.125C334.859 100.953 331.521 100.526 328.644 102.17C325.767 103.815 324.442 106.909 325.684 109.08C326.925 111.252 330.264 111.68 333.14 110.035Z" stroke="#3A3734" stroke-width="2" stroke-miterlimit="10" stroke-linecap="round" stroke-linejoin="round"/>
<path id="Vector_12" d="M335.96 103.51C335.96 103.51 332.01 103.87 330.99 105.69C329.96 107.51 328.64 107.92 325.41 108.46" stroke="#3A3734" stroke-width="2" stroke-miterlimit="10" stroke-linecap="round" stroke-linejoin="round"/>
</g>
<g id="Group_8">
<path id="Vector_13" d="M330.77 96.8612C334.065 96.5069 336.519 94.2032 336.252 91.7156C335.984 89.228 333.097 87.4986 329.802 87.8528C326.507 88.207 324.053 90.5108 324.32 92.9984C324.588 95.486 327.475 97.2154 330.77 96.8612Z" stroke="#3A3734" stroke-width="2" stroke-miterlimit="10" stroke-linecap="round" stroke-linejoin="round"/>
<path id="Vector_14" d="M335.96 92.01C335.96 92.01 332.2 90.76 330.53 92.02C328.86 93.27 327.49 93.12 324.31 92.33" stroke="#3A3734" stroke-width="2" stroke-miterlimit="10" stroke-linecap="round" stroke-linejoin="round"/>
</g>
<g id="Group_9">
<path id="Vector_15" d="M364.046 118.576C366.046 115.934 366.051 112.568 364.057 111.058C362.062 109.548 358.824 110.465 356.823 113.106C354.823 115.748 354.818 119.114 356.812 120.624C358.807 122.135 362.045 121.218 364.046 118.576Z" stroke="#3A3734" stroke-width="2" stroke-miterlimit="10" stroke-linecap="round" stroke-linejoin="round"/>
<path id="Vector_16" d="M364.08 111.47C364.08 111.47 360.59 113.36 360.36 115.43C360.13 117.5 359.07 118.4 356.32 120.17" stroke="#3A3734" stroke-width="2" stroke-miterlimit="10" stroke-linecap="round" stroke-linejoin="round"/>
</g>
</g>
<path id="Vector_17" d="M328.8 110.99L332.29 113.32" stroke="#3A3734" stroke-width="2" stroke-miterlimit="10" stroke-linecap="round" stroke-linejoin="round"/>
<path id="Vector_18" d="M340.76 118.97L345.29 122L360.72 104.24C364.39 98.75 363.18 92.69 357.69 89.02L357.14 88.65C351.65 84.98 344.16 86.48 340.5 91.97L334.32 101.22" stroke="#3A3734" stroke-width="2" stroke-miterlimit="10" stroke-linecap="round" stroke-linejoin="round"/>
<path id="Vector_19" d="M328.8 110.99L332.29 113.32" stroke="#3A3734" stroke-width="2" stroke-miterlimit="10" stroke-linecap="round" stroke-linejoin="round"/>
<path id="Vector_20" d="M341.2 119.27L344.62 121.55L354.59 106.62C357.54 102.2 356.34 96.18 351.92 93.23L351.47 92.93C347.05 89.98 341.03 91.18 338.08 95.6L334.32 101.23" stroke="#3A3734" stroke-width="2" stroke-miterlimit="10" stroke-linecap="round" stroke-linejoin="round"/>
<path id="Vector_21" d="M359.7 90.46C359.7 90.46 367.2 84.06 368.05 81.43C368.9 78.8 366.82 77.42 366.82 77.42C366.82 77.42 364.89 75.85 362.63 77.44C360.37 79.03 356.5 88.1 356.5 88.1" stroke="#3A3734" stroke-width="2" stroke-miterlimit="10" stroke-linecap="round" stroke-linejoin="round"/>
</g>
<g id="Group_10">
<path id="Vector_22" d="M448.61 94.69H426.78V123H448.61V94.69Z" stroke="#3A3734" stroke-width="2" stroke-miterlimit="10" stroke-linecap="round" stroke-linejoin="round"/>
<path id="Vector_23" d="M448.61 101.17H426.78V113.96H448.61V101.17Z" stroke="#3A3734" stroke-width="2" stroke-miterlimit="10" stroke-linecap="round" stroke-linejoin="round"/>
<path id="Vector_24" d="M426.78 94.69L432.11 83.42H454.11L448.61 94.19V123H459.61V94.19L454.11 83.42" stroke="#3A3734" stroke-width="2" stroke-miterlimit="10" stroke-linecap="round" stroke-linejoin="round"/>
<g id="Group_11">
<path id="Vector_25" d="M438.077 111.04C440.526 110.343 442.085 108.28 441.559 106.432C441.033 104.583 438.622 103.649 436.173 104.346C433.724 105.042 432.166 107.106 432.691 108.954C433.217 110.803 435.629 111.737 438.077 111.04Z" stroke="#3A3734" stroke-width="2" stroke-miterlimit="10" stroke-linecap="round" stroke-linejoin="round"/>
<path id="Vector_26" d="M441.4 106.7C441.4 106.7 438.39 106.24 437.29 107.41C436.19 108.58 435.13 108.64 432.62 108.45" stroke="#3A3734" stroke-width="2" stroke-miterlimit="10" stroke-linecap="round" stroke-linejoin="round"/>
</g>
<path id="Vector_27" d="M454.11 78.35H432.11V83.41H454.11V78.35Z" stroke="#3A3734" stroke-width="2" stroke-miterlimit="10" stroke-linecap="round" stroke-linejoin="round"/>
<path id="Vector_28" d="M448.61 123L454.11 117.35L459.61 123" stroke="#3A3734" stroke-width="2" stroke-miterlimit="10" stroke-linecap="round" stroke-linejoin="round"/>
<path id="Vector_29" d="M454.11 84.42V117.35" stroke="#3A3734" stroke-width="2" stroke-miterlimit="10" stroke-linecap="round" stroke-linejoin="round"/>
</g>
<g id="Group_12">
<path id="Vector_30" d="M523.26 123H547.01L550.26 84.44H526.76L523.26 123Z" stroke="#3A3734" stroke-width="2" stroke-miterlimit="10" stroke-linecap="round" stroke-linejoin="round"/>
<path id="Vector_31" d="M547.01 123H556.76L550.26 84.44" stroke="#3A3734" stroke-width="2" stroke-miterlimit="10" stroke-linecap="round" stroke-linejoin="round"/>
<path id="Vector_32" d="M526.76 84.44L529.85 78.35H553.18L550.26 85.17" stroke="#3A3734" stroke-width="2" stroke-miterlimit="10" stroke-linecap="round" stroke-linejoin="round"/>
<path id="Vector_33" d="M529.85 78.35L534.68 75H558.26L553.18 78.35" stroke="#3A3734" stroke-width="2" stroke-miterlimit="10" stroke-linecap="round" stroke-linejoin="round"/>
<path id="Vector_34" d="M558.26 75L559.26 80.19L556.1 82.94H551.89" stroke="#3A3734" stroke-width="2" stroke-miterlimit="10" stroke-linecap="round" stroke-linejoin="round"/>
<path id="Vector_35" d="M559.26 80.19H552.4" stroke="#3A3734" stroke-width="2" stroke-miterlimit="10" stroke-linecap="round" stroke-linejoin="round"/>
<g id="Group_13">
<g id="Group_14">
<path id="Vector_36" d="M538.422 107.375C539.182 105.633 537.93 103.407 535.626 102.403C533.323 101.398 530.84 101.996 530.08 103.737C529.321 105.479 530.573 107.705 532.876 108.709C535.18 109.714 537.663 109.116 538.422 107.375Z" stroke="#3A3734" stroke-width="2" stroke-miterlimit="10" stroke-linecap="round" stroke-linejoin="round"/>
<path id="Vector_37" d="M530.37 103.67C530.37 103.67 532.38 105.91 533.95 105.71C535.52 105.51 536.37 106.13 538.16 107.85" stroke="#3A3734" stroke-width="2" stroke-miterlimit="10" stroke-linecap="round" stroke-linejoin="round"/>
</g>
<g id="Group_15">
<path id="Vector_38" d="M535.2 102.17C535.22 100.48 536.85 99.04 539.1 98.62C541.57 98.17 543.86 99.31 544.2 101.18C544.54 103.05 542.82 104.93 540.34 105.38C539.72 105.49 539.12 105.51 538.55 105.43" stroke="#3A3734" stroke-width="2" stroke-miterlimit="10" stroke-linecap="round" stroke-linejoin="round"/>
<path id="Vector_39" d="M544 101.42C544 101.42 541.08 100.69 539.89 101.73C538.7 102.77 537.76 102.72 535.32 102.3" stroke="#3A3734" stroke-width="2" stroke-miterlimit="10" stroke-linecap="round" stroke-linejoin="round"/>
</g>
</g>
</g>
<g id="Group_16">
<path id="Vector_40" d="M167.06 182.99C167.06 182.99 173.33 182.19 173.33 189.26C173.33 196.34 164.11 196.8 164.11 196.8" stroke="#3A3734" stroke-width="2" stroke-miterlimit="10" stroke-linecap="round" stroke-linejoin="round"/>
<g id="Group_17">
<path id="Vector_41" d="M155.62 162.8C156.76 164.15 156.84 166.09 155.83 167.53C154.85 168.92 154.89 170.78 155.93 172.12" stroke="#3A3734" stroke-width="2" stroke-miterlimit="10" stroke-linecap="round" stroke-linejoin="round"/>
<path id="Vector_42" d="M147.65 162.8C148.79 164.15 148.87 166.09 147.86 167.53C146.88 168.92 146.92 170.78 147.96 172.12" stroke="#3A3734" stroke-width="2" stroke-miterlimit="10" stroke-linecap="round" stroke-linejoin="round"/>
<path id="Vector_43" d="M139.69 162.8C140.83 164.15 140.91 166.09 139.9 167.53C138.92 168.92 138.96 170.78 140 172.12" stroke="#3A3734" stroke-width="2" stroke-miterlimit="10" stroke-linecap="round" stroke-linejoin="round"/>
</g>
<path id="Vector_44" d="M158.29 208.6H139.93C135.49 208.6 131.21 207.11 128 204.45H170.21C167 207.11 162.73 208.6 158.29 208.6Z" stroke="#3A3734" stroke-width="2" stroke-miterlimit="10" stroke-linecap="round" stroke-linejoin="round"/>
<path id="Vector_45" d="M156.93 203.93C160.69 200.93 163.45 197.8 164.19 193.25L166.34 179.93H131.26L133.41 193.25C134.15 197.8 136.91 200.93 140.67 203.93" stroke="#3A3734" stroke-width="2" stroke-miterlimit="10" stroke-linecap="round" stroke-linejoin="round"/>
</g>
<g id="Icon Kaffee Tasse">
<path id="Vector_46" d="M265.09 182.99C265.09 182.99 271.35 181.47 271.35 187.3C271.35 194.38 260.17 197.53 260.17 197.53" stroke="#3A3734" stroke-width="2" stroke-miterlimit="10" stroke-linecap="round" stroke-linejoin="round"/>
<g id="Group_18">
<path id="Vector_47" d="M253.65 162.8C254.79 164.15 254.87 166.09 253.86 167.53C252.88 168.92 252.92 170.78 253.96 172.12" stroke="#3A3734" stroke-width="2" stroke-miterlimit="10" stroke-linecap="round" stroke-linejoin="round"/>
<path id="Vector_48" d="M245.69 162.8C246.83 164.15 246.91 166.09 245.9 167.53C244.92 168.92 244.96 170.78 246 172.12" stroke="#3A3734" stroke-width="2" stroke-miterlimit="10" stroke-linecap="round" stroke-linejoin="round"/>
<path id="Vector_49" d="M237.72 162.8C238.86 164.15 238.94 166.09 237.93 167.53C236.95 168.92 236.99 170.78 238.03 172.12" stroke="#3A3734" stroke-width="2" stroke-miterlimit="10" stroke-linecap="round" stroke-linejoin="round"/>
</g>
<path id="Vector_50" d="M256.32 208.6H237.96C233.52 208.6 229.24 207.11 226.04 204.45H268.25C265.04 207.11 260.76 208.6 256.32 208.6Z" stroke="#3A3734" stroke-width="2" stroke-miterlimit="10" stroke-linecap="round" stroke-linejoin="round"/>
<path id="Vector_51" d="M246.6 180.8H228.69C228.69 180.8 226.69 199.2 242.86 204.45" stroke="#3A3734" stroke-width="2" stroke-miterlimit="10" stroke-linecap="round" stroke-linejoin="round"/>
<path id="Vector_52" d="M246.6 180.8H264.51C264.51 180.8 266.51 199.2 250.34 204.45" stroke="#3A3734" stroke-width="2" stroke-miterlimit="10" stroke-linecap="round" stroke-linejoin="round"/>
</g>
<g id="Group_19">
<path id="Vector_53" d="M358.75 178.64C358.75 178.64 368.08 176.47 368.08 184.47C368.08 189.93 358.75 194.8 358.75 194.8" stroke="#3A3734" stroke-width="2" stroke-miterlimit="10" stroke-linecap="round" stroke-linejoin="round"/>
<g id="Group_20">
<path id="Vector_54" d="M352.09 162.8C353.23 164.15 353.31 166.09 352.3 167.53C351.32 168.92 351.36 170.78 352.4 172.12" stroke="#3A3734" stroke-width="2" stroke-miterlimit="10" stroke-linecap="round" stroke-linejoin="round"/>
<path id="Vector_55" d="M344.12 162.8C345.26 164.15 345.34 166.09 344.33 167.53C343.35 168.92 343.39 170.78 344.43 172.12" stroke="#3A3734" stroke-width="2" stroke-miterlimit="10" stroke-linecap="round" stroke-linejoin="round"/>
<path id="Vector_56" d="M336.16 162.8C337.3 164.15 337.38 166.09 336.37 167.53C335.39 168.92 335.43 170.78 336.47 172.12" stroke="#3A3734" stroke-width="2" stroke-miterlimit="10" stroke-linecap="round" stroke-linejoin="round"/>
</g>
<path id="Vector_57" d="M354.75 208.6H336.39C331.95 208.6 327.67 207.11 324.47 204.45H366.68C363.47 207.11 359.2 208.6 354.75 208.6Z" stroke="#3A3734" stroke-width="2" stroke-miterlimit="10" stroke-linecap="round" stroke-linejoin="round"/>
<path id="Vector_58" d="M350.67 204.45C351.96 204.45 353.2 203.84 354.31 202.98C357.2 200.74 358.75 197.25 358.75 193.67V175.3H344.75H330.75V193.66C330.75 197.24 332.3 200.74 335.19 202.97C336.3 203.83 337.54 204.44 338.83 204.44" stroke="#3A3734" stroke-width="2" stroke-miterlimit="10" stroke-linecap="round" stroke-linejoin="round"/>
</g>
<g id="Group_21">
<path id="Vector_59" d="M456.17 181.64C456.17 181.64 465.5 179.47 465.5 187.47C465.5 192.93 456.17 197.8 456.17 197.8" stroke="#3A3734" stroke-width="2" stroke-miterlimit="10" stroke-linecap="round" stroke-linejoin="round"/>
<path id="Vector_60" d="M451.17 208.6H432.81C428.37 208.6 424.09 207.11 420.89 204.45H463.1C459.89 207.11 455.62 208.6 451.17 208.6Z" stroke="#3A3734" stroke-width="2" stroke-miterlimit="10" stroke-linecap="round" stroke-linejoin="round"/>
<path id="Vector_61" d="M441.13 178.3H426.1V196.66C426.1 200.24 427.12 202.21 430.22 204.44" stroke="#3A3734" stroke-width="2" stroke-miterlimit="10" stroke-linecap="round" stroke-linejoin="round"/>
<path id="Vector_62" d="M441.13 178.3H456.16V196.66C456.16 200.24 455.14 202.21 452.04 204.44" stroke="#3A3734" stroke-width="2" stroke-miterlimit="10" stroke-linecap="round" stroke-linejoin="round"/>
<path id="Vector_63" d="M435.97 178.3V183.97" stroke="#3A3734" stroke-width="2" stroke-miterlimit="10" stroke-linecap="round" stroke-linejoin="round"/>
<path id="Vector_64" d="M435.97 195.22H432.6V188.47L435.97 184.6" stroke="#3A3734" stroke-width="2" stroke-miterlimit="10" stroke-linecap="round" stroke-linejoin="round"/>
<path id="Vector_65" d="M435.97 195.22H439.35V188.47L435.97 184.6" stroke="#3A3734" stroke-width="2" stroke-miterlimit="10" stroke-linecap="round" stroke-linejoin="round"/>
<path id="Vector_66" d="M444.69 178.3C444.69 178.3 451.98 160.33 456.72 163.69C460.83 166.59 451.34 170.26 448.1 178.3" stroke="#3A3734" stroke-width="2" stroke-miterlimit="10" stroke-linecap="round" stroke-linejoin="round"/>
</g>
<g id="Group_22">
<path id="Vector_67" d="M535.67 169.97H520.75V198.64C520.75 198.64 520.85 200.75 521.79 203.15C523.08 206.48 526.37 208.6 529.94 208.6H536.34" stroke="#3A3734" stroke-width="2" stroke-miterlimit="10" stroke-linecap="round" stroke-linejoin="round"/>
<path id="Vector_68" d="M535.67 169.97H550.59V198.64C550.59 198.64 550.49 200.75 549.55 203.15C548.26 206.48 544.97 208.6 541.4 208.6H535" stroke="#3A3734" stroke-width="2" stroke-miterlimit="10" stroke-linecap="round" stroke-linejoin="round"/>
<path id="Vector_69" d="M556.76 174.3C554.97 174.3 552.76 174.17 550.59 174.22V178.15C551.91 178.12 553.24 178.21 554.33 178.21C557.74 178.21 557.42 181.75 557.42 186.12C557.42 190.49 554.66 194.03 551.25 194.03C551.03 194.03 550.81 193.99 550.6 193.93V197.78C550.98 197.89 551.37 197.96 551.77 197.96C557.29 197.96 561.77 192.66 561.77 186.13C561.76 179.6 562.28 174.3 556.76 174.3Z" stroke="#3A3734" stroke-width="2" stroke-miterlimit="10" stroke-linecap="round" stroke-linejoin="round"/>
<path id="Vector_70" d="M550.59 186.22H520.76V197.97H550.59V186.22Z" stroke="#3A3734" stroke-width="2" stroke-miterlimit="10" stroke-linecap="round" stroke-linejoin="round"/>
<path id="Vector_71" d="M550.59 190.08H520.76V194.11H550.59V190.08Z" stroke="#3A3734" stroke-width="2" stroke-miterlimit="10" stroke-linecap="round" stroke-linejoin="round"/>
</g>
<g id="Icon-Kaffee Pflanze">
<path id="Vector_72" d="M172.44 82.7C165.19 84.39 144.98 98.17 141.42 111.1" stroke="#3A3734" stroke-width="2" stroke-miterlimit="10" stroke-linecap="round" stroke-linejoin="round"/>
<path id="Vector_73" d="M139.44 123C142.726 123 145.39 120.336 145.39 117.05C145.39 113.764 142.726 111.1 139.44 111.1C136.154 111.1 133.49 113.764 133.49 117.05C133.49 120.336 136.154 123 139.44 123Z" stroke="#3A3734" stroke-width="2" stroke-miterlimit="10" stroke-linecap="round" stroke-linejoin="round"/>
<path id="Vector_74" d="M136.61 118.17C136.61 118.17 139.21 117.83 139.21 120.13" stroke="#3A3734" stroke-width="2" stroke-miterlimit="10" stroke-linecap="round" stroke-linejoin="round"/>
<g id="Group_23">
<path id="Vector_75" d="M152.89 117.05C156.176 117.05 158.84 114.386 158.84 111.1C158.84 107.814 156.176 105.15 152.89 105.15C149.604 105.15 146.94 107.814 146.94 111.1C146.94 114.386 149.604 117.05 152.89 117.05Z" stroke="#3A3734" stroke-width="2" stroke-miterlimit="10" stroke-linecap="round" stroke-linejoin="round"/>
<path id="Vector_76" d="M152.08 114.03C152.08 114.03 153.38 111.75 155.21 113.13" stroke="#3A3734" stroke-width="2" stroke-miterlimit="10" stroke-linecap="round" stroke-linejoin="round"/>
</g>
<g id="Group_24">
<path id="Vector_77" d="M134.84 107.89C138.126 107.89 140.79 105.226 140.79 101.94C140.79 98.6539 138.126 95.99 134.84 95.99C131.554 95.99 128.89 98.6539 128.89 101.94C128.89 105.226 131.554 107.89 134.84 107.89Z" stroke="#3A3734" stroke-width="2" stroke-miterlimit="10" stroke-linecap="round" stroke-linejoin="round"/>
<path id="Vector_78" d="M131.8 101.77C131.8 101.77 134.31 102.55 133.34 104.64" stroke="#3A3734" stroke-width="2" stroke-miterlimit="10" stroke-linecap="round" stroke-linejoin="round"/>
</g>
<path id="Vector_79" d="M140.6 100.46C140.6 100.46 143.9 98.78 147.56 100.46C147.56 100.46 150.7 101.94 150.79 105.54" stroke="#3A3734" stroke-width="2" stroke-miterlimit="10" stroke-linecap="round" stroke-linejoin="round"/>
<path id="Vector_80" d="M139.44 87.94C139.44 87.94 149.56 87.48 155.81 92.48" stroke="#3A3734" stroke-width="2" stroke-miterlimit="10" stroke-linecap="round" stroke-linejoin="round"/>
<path id="Vector_81" d="M152.08 90.14C152.08 90.14 148.43 77.07 130.8 87.57C130.8 87.57 140.23 96.59 151.58 89.9" stroke="#3A3734" stroke-width="2" stroke-miterlimit="10" stroke-linecap="round" stroke-linejoin="round"/>
<path id="Vector_82" d="M161.03 89.26C161.03 89.26 164.55 95.22 164.68 101.22" stroke="#3A3734" stroke-width="2" stroke-miterlimit="10" stroke-linecap="round" stroke-linejoin="round"/>
<path id="Vector_83" d="M163.26 94.19C163.26 94.19 155.81 98.63 164.68 111.36C164.68 111.36 173.94 98.48 163.26 94.19Z" stroke="#3A3734" stroke-width="2" stroke-miterlimit="10" stroke-linecap="round" stroke-linejoin="round"/>
<path id="Vector_84" d="M163.68 86.85C163.68 86.85 157.74 82.22 152.89 80.47" stroke="#3A3734" stroke-width="2" stroke-miterlimit="10" stroke-linecap="round" stroke-linejoin="round"/>
<path id="Vector_85" d="M160.03 84.27C160.03 84.27 162.65 73.22 141.41 75.97C141.41 75.97 150.44 88.69 160.68 84.71" stroke="#3A3734" stroke-width="2" stroke-miterlimit="10" stroke-linecap="round" stroke-linejoin="round"/>
</g>
<g id="Group_25">
<path id="Vector_86" d="M358.95 288.35H333.63L330.65 266.39H361.94L358.95 288.35Z" stroke="#3A3734" stroke-width="2" stroke-miterlimit="10" stroke-linecap="round" stroke-linejoin="round"/>
<g id="Group_26">
<path id="Vector_87" d="M360.13 266.39L360.78 260.64H331.8L332.45 266.39" stroke="#3A3734" stroke-width="2" stroke-miterlimit="10" stroke-linecap="round" stroke-linejoin="round"/>
<path id="Vector_88" d="M334.93 288.35L335.8 296.11H356.78L357.65 288.35" stroke="#3A3734" stroke-width="2" stroke-miterlimit="10" stroke-linecap="round" stroke-linejoin="round"/>
</g>
<path id="Vector_89" d="M362.78 255.64H329.78V260.64H362.78V255.64Z" stroke="#3A3734" stroke-width="2" stroke-miterlimit="10" stroke-linecap="round" stroke-linejoin="round"/>
<path id="Vector_90" d="M358.78 249.98H333.78L331.78 255.64H360.78L358.78 249.98Z" stroke="#3A3734" stroke-width="2" stroke-miterlimit="10" stroke-linecap="round" stroke-linejoin="round"/>
</g>
<g id="Group_27">
<path id="Vector_91" d="M459.69 255.64H426.69V260.64H459.69V255.64Z" stroke="#3A3734" stroke-width="2" stroke-miterlimit="10" stroke-linecap="round" stroke-linejoin="round"/>
<path id="Vector_92" d="M455.69 251.98L430.69 249.98L428.69 255.64H457.69L455.69 251.98Z" stroke="#3A3734" stroke-width="2" stroke-miterlimit="10" stroke-linecap="round" stroke-linejoin="round"/>
<path id="Vector_93" d="M455.87 288.35H430.55L427.56 266.39H458.85L455.87 288.35Z" stroke="#3A3734" stroke-width="2" stroke-miterlimit="10" stroke-linecap="round" stroke-linejoin="round"/>
<g id="Group_28">
<path id="Vector_94" d="M457.04 266.39L457.69 260.64H428.72L429.37 266.39" stroke="#3A3734" stroke-width="2" stroke-miterlimit="10" stroke-linecap="round" stroke-linejoin="round"/>
<path id="Vector_95" d="M431.85 288.35L432.72 296.11H453.69L454.57 288.35" stroke="#3A3734" stroke-width="2" stroke-miterlimit="10" stroke-linecap="round" stroke-linejoin="round"/>
</g>
</g>
<g id="Group_29">
<path id="Vector_96" d="M555.76 255.64L553.76 249.98H528.76L526.76 255.64" stroke="#3A3734" stroke-width="2" stroke-miterlimit="10" stroke-linecap="round" stroke-linejoin="round"/>
<path id="Vector_97" d="M553.94 288.35H528.62L525.63 266.39H556.92L553.94 288.35Z" stroke="#3A3734" stroke-width="2" stroke-miterlimit="10" stroke-linecap="round" stroke-linejoin="round"/>
<g id="Group_30">
<path id="Vector_98" d="M555.12 266.39L555.76 260.64H526.79L527.44 266.39" stroke="#3A3734" stroke-width="2" stroke-miterlimit="10" stroke-linecap="round" stroke-linejoin="round"/>
<path id="Vector_99" d="M529.92 288.35L530.79 296.11H551.76L552.64 288.35" stroke="#3A3734" stroke-width="2" stroke-miterlimit="10" stroke-linecap="round" stroke-linejoin="round"/>
</g>
<path id="Vector_100" d="M545.03 255.64C544.41 257.11 542.96 258.14 541.27 258.14C539.58 258.14 538.13 257.11 537.51 255.64H524.77V260.64H557.77V255.64H545.03Z" stroke="#3A3734" stroke-width="2" stroke-miterlimit="10" stroke-linecap="round" stroke-linejoin="round"/>
</g>
<g id="Group_31">
<path id="Vector_101" d="M161.73 381.52H139.23V384.52H161.73V381.52Z" stroke="#3A3734" stroke-width="2" stroke-miterlimit="10" stroke-linecap="round" stroke-linejoin="round"/>
<path id="Vector_102" d="M162.97 343.47H150.66H138.36L141.73 352.97L138.48 362.22H150.66H162.85L159.6 352.97L162.97 343.47Z" stroke="#3A3734" stroke-width="2" stroke-miterlimit="10" stroke-linecap="round" stroke-linejoin="round"/>
<g id="Group_32">
<path id="Vector_103" d="M161.17 343.47L163.48 337.52H137.85L140.16 343.47" stroke="#3A3734" stroke-width="2" stroke-miterlimit="10" stroke-linecap="round" stroke-linejoin="round"/>
<path id="Vector_104" d="M140.51 362.22L135.89 375.05C134.88 378.26 137.27 381.53 140.64 381.53H160.7C164.06 381.53 166.46 378.26 165.45 375.05L160.83 362.22" stroke="#3A3734" stroke-width="2" stroke-miterlimit="10" stroke-linecap="round" stroke-linejoin="round"/>
</g>
<path id="Vector_105" d="M159.6 352.97H141.73" stroke="#3A3734" stroke-width="2" stroke-miterlimit="10" stroke-linecap="round" stroke-linejoin="round"/>
<path id="Vector_106" d="M137.54 370.47H163.79" stroke="#3A3734" stroke-width="2" stroke-miterlimit="10" stroke-linecap="round" stroke-linejoin="round"/>
</g>
<g id="Group_33">
<path id="Vector_107" d="M256.8 352.1H232.55V355.98H256.8V352.1Z" stroke="#3A3734" stroke-width="2" stroke-miterlimit="10" stroke-linecap="round" stroke-linejoin="round"/>
<path id="Vector_108" d="M256.8 355.98H232.66C228.66 359.4 226.11 364.47 226.11 370.15C226.11 375.94 228.75 381.11 232.89 384.53H256.57C260.71 381.11 263.35 375.94 263.35 370.15C263.36 364.47 260.81 359.4 256.8 355.98Z" stroke="#3A3734" stroke-width="2" stroke-miterlimit="10" stroke-linecap="round" stroke-linejoin="round"/>
<path id="Vector_109" d="M256.8 352.1H263.67C267.87 352.1 271.28 355.51 271.28 359.71V368.4C271.28 369.42 270.45 370.25 269.43 370.25C268.41 370.25 267.58 369.42 267.58 368.4V359.61C267.58 357.61 265.96 355.98 263.95 355.98H256.81" stroke="#3A3734" stroke-width="2" stroke-miterlimit="10" stroke-linecap="round" stroke-linejoin="round"/>
<path id="Vector_110" d="M232.64 352.1C232.36 351.47 229.78 342.49 229.78 342.49L256.8 348.21V352.09" stroke="#3A3734" stroke-width="2" stroke-miterlimit="10" stroke-linecap="round" stroke-linejoin="round"/>
<path id="Vector_111" d="M226.35 367.19H263.21" stroke="#3A3734" stroke-width="2" stroke-miterlimit="10" stroke-linecap="round" stroke-linejoin="round"/>
</g>
<g id="Group_34">
<path id="Vector_112" d="M325.21 368.39C325.21 375.2 328.8 381.16 334.18 384.52H354.3C359.68 381.16 363.27 375.2 363.27 368.39C363.27 361.8 359.91 355.99 354.82 352.57H333.66C328.57 355.99 325.21 361.79 325.21 368.39Z" stroke="#3A3734" stroke-width="2" stroke-miterlimit="10" stroke-linecap="round" stroke-linejoin="round"/>
<path id="Vector_113" d="M333.66 352.57V345.41L330.24 342.12L354.86 345.41V352.57" stroke="#3A3734" stroke-width="2" stroke-miterlimit="10" stroke-linecap="round" stroke-linejoin="round"/>
<path id="Vector_114" d="M354.86 348.71H360.28C364.18 348.71 367.35 351.87 367.35 355.78V371.08" stroke="#3A3734" stroke-width="2" stroke-miterlimit="10" stroke-linecap="round" stroke-linejoin="round"/>
<path id="Vector_115" d="M333.66 348.71H354.86" stroke="#3A3734" stroke-width="2" stroke-miterlimit="10" stroke-linecap="round" stroke-linejoin="round"/>
<path id="Vector_116" d="M326.14 362.49H362.34" stroke="#3A3734" stroke-width="2" stroke-miterlimit="10" stroke-linecap="round" stroke-linejoin="round"/>
</g>
<g id="Icon French Press">
<path id="Vector_117" d="M450.13 384.52H432.8C430.76 384.52 429.11 382.87 429.11 380.83V350.71H453.82V380.83C453.82 382.87 452.17 384.52 450.13 384.52Z" stroke="#3A3734" stroke-width="2" stroke-miterlimit="10" stroke-linecap="round" stroke-linejoin="round"/>
<path id="Vector_118" d="M453.82 346.25H425.01C425.01 348.71 427 350.7 429.46 350.7H453.81V346.25H453.82Z" stroke="#3A3734" stroke-width="2" stroke-miterlimit="10" stroke-linecap="round" stroke-linejoin="round"/>
<path id="Vector_119" d="M453.82 346.25H429.11V344.97C429.11 342.93 430.76 341.28 432.8 341.28H450.13C452.17 341.28 453.82 342.93 453.82 344.97V346.25Z" stroke="#3A3734" stroke-width="2" stroke-miterlimit="10" stroke-linecap="round" stroke-linejoin="round"/>
<path id="Vector_120" d="M443.49 341.28H438.11V341.21C438.11 339.73 439.31 338.52 440.8 338.52C442.28 338.52 443.49 339.72 443.49 341.21V341.28Z" stroke="#3A3734" stroke-width="2" stroke-miterlimit="10" stroke-linecap="round" stroke-linejoin="round"/>
<path id="Vector_121" d="M457.46 376.1H453.83V350.71H457.46C459.62 350.71 461.37 352.46 461.37 354.62V372.19C461.37 374.34 459.62 376.1 457.46 376.1Z" stroke="#3A3734" stroke-width="2" stroke-miterlimit="10" stroke-linecap="round" stroke-linejoin="round"/>
<path id="Vector_122" d="M453.82 365.6H429.11V368.64H453.82V365.6Z" stroke="#3A3734" stroke-width="2" stroke-miterlimit="10" stroke-linecap="round" stroke-linejoin="round"/>
<path id="Vector_123" d="M440.8 351.1V364.85" stroke="#3A3734" stroke-width="2" stroke-miterlimit="10" stroke-linecap="round" stroke-linejoin="round"/>
</g>
<g id="Icon Bialetti">
<path id="Vector_124" d="M539.22 363.4V384.52H531.24L534.23 363.4H539.22Z" stroke="#3A3734" stroke-width="2" stroke-miterlimit="10" stroke-linecap="round" stroke-linejoin="round"/>
<path id="Vector_125" d="M534.23 363.4H530.63L525.66 381.45C525.31 383.02 526.45 384.52 528 384.52H531.24" stroke="#3A3734" stroke-width="2" stroke-miterlimit="10" stroke-linecap="round" stroke-linejoin="round"/>
<path id="Vector_126" d="M539.22 363.4V384.52H547.2L544.21 363.4H539.22Z" stroke="#3A3734" stroke-width="2" stroke-miterlimit="10" stroke-linecap="round" stroke-linejoin="round"/>
<path id="Vector_127" d="M544.21 363.4H547.81L552.78 381.45C553.13 383.02 551.99 384.52 550.44 384.52H547.2" stroke="#3A3734" stroke-width="2" stroke-miterlimit="10" stroke-linecap="round" stroke-linejoin="round"/>
<path id="Vector_128" d="M547.21 359.97H531.26V363.4H547.21V359.97Z" stroke="#3A3734" stroke-width="2" stroke-miterlimit="10" stroke-linecap="round" stroke-linejoin="round"/>
<path id="Vector_129" d="M539.45 359.97V344.85H533.09L534.34 359.97" stroke="#3A3734" stroke-width="2" stroke-miterlimit="10" stroke-linecap="round" stroke-linejoin="round"/>
<path id="Vector_130" d="M530.65 359.97L527.93 344.85H533.09" stroke="#3A3734" stroke-width="2" stroke-miterlimit="10" stroke-linecap="round" stroke-linejoin="round"/>
<path id="Vector_131" d="M529.29 352.91C524.65 350.49 523.01 344.85 523.01 344.85H527.93C527.93 344.85 535.08 340.53 539.47 340.53" stroke="#3A3734" stroke-width="2" stroke-miterlimit="10" stroke-linecap="round" stroke-linejoin="round"/>
<path id="Vector_132" d="M539.49 359.97V344.85H545.85L544.61 359.97" stroke="#3A3734" stroke-width="2" stroke-miterlimit="10" stroke-linecap="round" stroke-linejoin="round"/>
<path id="Vector_133" d="M548.29 359.97L551.02 344.85H545.85" stroke="#3A3734" stroke-width="2" stroke-miterlimit="10" stroke-linecap="round" stroke-linejoin="round"/>
<path id="Vector_134" d="M551.02 344.85C551.02 344.85 543.87 340.53 539.48 340.53" stroke="#3A3734" stroke-width="2" stroke-miterlimit="10" stroke-linecap="round" stroke-linejoin="round"/>
<path id="Vector_135" d="M537.64 340C537.64 338.63 538.48 337.53 539.52 337.53C540.56 337.53 541.4 338.64 541.4 340" stroke="#3A3734" stroke-width="2" stroke-miterlimit="10" stroke-linecap="round" stroke-linejoin="round"/>
<path id="Vector_136" d="M551.02 346.72H552.84C556.53 346.72 559.52 349.71 559.52 353.4V363.48C559.52 364.31 558.85 364.98 558.02 364.98C557.19 364.98 556.52 364.31 556.52 363.48V353.23C556.52 351.37 555.01 349.86 553.15 349.86H550.29" stroke="#3A3734" stroke-width="2" stroke-miterlimit="10" stroke-linecap="round" stroke-linejoin="round"/>
</g>
<g id="Group_35">
<path id="Vector_137" d="M170 467.25H131.33V470.93H170V467.25Z" stroke="#3A3734" stroke-width="2" stroke-miterlimit="10" stroke-linecap="round" stroke-linejoin="round"/>
<path id="Vector_138" d="M170 452.97H131.33C131.33 450.94 132.98 449.29 135.01 449.29H166.31C168.35 449.29 170 450.94 170 452.97Z" stroke="#3A3734" stroke-width="2" stroke-miterlimit="10" stroke-linecap="round" stroke-linejoin="round"/>
<path id="Vector_139" d="M167.9 452.97H133.43V467.25H167.9V452.97Z" stroke="#3A3734" stroke-width="2" stroke-miterlimit="10" stroke-linecap="round" stroke-linejoin="round"/>
<path id="Vector_140" d="M163.3 455.94H138.02V464.28H163.3V455.94Z" stroke="#3A3734" stroke-width="2" stroke-miterlimit="10" stroke-linecap="round" stroke-linejoin="round"/>
<path id="Vector_141" d="M148.83 460.11H152.33" stroke="#3A3734" stroke-width="2" stroke-miterlimit="10" stroke-linecap="round" stroke-linejoin="round"/>
<path id="Vector_142" d="M147.67 449.08H154.66C159.45 447.59 162.93 443.13 162.93 437.85H139.4C139.4 443.12 142.88 447.59 147.67 449.08Z" stroke="#3A3734" stroke-width="2" stroke-miterlimit="10" stroke-linecap="round" stroke-linejoin="round"/>
<path id="Vector_143" d="M151.17 437.85V435.1" stroke="#3A3734" stroke-width="2" stroke-miterlimit="10" stroke-linecap="round" stroke-linejoin="round"/>
<path id="Vector_144" d="M151.27 435.1C150.41 435.1 149.71 434.4 149.71 433.54V431.54C149.71 430.68 150.41 429.98 151.27 429.98C152.13 429.98 152.83 430.68 152.83 431.54V433.54C152.83 434.39 152.13 435.1 151.27 435.1Z" stroke="#3A3734" stroke-width="2" stroke-miterlimit="10" stroke-linecap="round" stroke-linejoin="round"/>
<path id="Vector_145" d="M167.9 430.06C167.04 430.06 166.34 429.36 166.34 428.5V426.5C166.34 425.64 167.04 424.94 167.9 424.94C168.76 424.94 169.46 425.64 169.46 426.5V428.5C169.46 429.36 168.76 430.06 167.9 430.06Z" stroke="#3A3734" stroke-width="2" stroke-miterlimit="10" stroke-linecap="round" stroke-linejoin="round"/>
<path id="Vector_146" d="M152.83 432.53L155.96 429.97L167.9 430.06" stroke="#3A3734" stroke-width="2" stroke-miterlimit="10" stroke-linecap="round" stroke-linejoin="round"/>
</g>
<g id="Group_36">
<path id="Vector_147" d="M365.61 467.25H326.94V470.93H365.61V467.25Z" stroke="#3A3734" stroke-width="2" stroke-miterlimit="10" stroke-linecap="round" stroke-linejoin="round"/>
<path id="Vector_148" d="M365.61 452.97H326.94C326.94 450.94 328.59 449.29 330.62 449.29H361.92C363.96 449.29 365.61 450.94 365.61 452.97Z" stroke="#3A3734" stroke-width="2" stroke-miterlimit="10" stroke-linecap="round" stroke-linejoin="round"/>
<path id="Vector_149" d="M363.51 452.97H329.04V467.25H363.51V452.97Z" stroke="#3A3734" stroke-width="2" stroke-miterlimit="10" stroke-linecap="round" stroke-linejoin="round"/>
<path id="Vector_150" d="M358.92 455.94H333.64V464.28H358.92V455.94Z" stroke="#3A3734" stroke-width="2" stroke-miterlimit="10" stroke-linecap="round" stroke-linejoin="round"/>
<path id="Vector_151" d="M344.44 460.11H347.94" stroke="#3A3734" stroke-width="2" stroke-miterlimit="10" stroke-linecap="round" stroke-linejoin="round"/>
<path id="Vector_152" d="M350.38 440.6H343.16C338.22 441.72 334.63 445.1 334.63 449.08H358.91C358.92 445.09 355.33 441.72 350.38 440.6Z" stroke="#3A3734" stroke-width="2" stroke-miterlimit="10" stroke-linecap="round" stroke-linejoin="round"/>
<path id="Vector_153" d="M346.78 437.85V435.1" stroke="#3A3734" stroke-width="2" stroke-miterlimit="10" stroke-linecap="round" stroke-linejoin="round"/>
<path id="Vector_154" d="M346.88 435.1C346.02 435.1 345.32 434.4 345.32 433.54V431.54C345.32 430.68 346.02 429.98 346.88 429.98C347.74 429.98 348.44 430.68 348.44 431.54V433.54C348.44 434.39 347.74 435.1 346.88 435.1Z" stroke="#3A3734" stroke-width="2" stroke-miterlimit="10" stroke-linecap="round" stroke-linejoin="round"/>
<path id="Vector_155" d="M363.51 430.06C362.65 430.06 361.95 429.36 361.95 428.5V426.5C361.95 425.64 362.65 424.94 363.51 424.94C364.37 424.94 365.07 425.64 365.07 426.5V428.5C365.07 429.36 364.37 430.06 363.51 430.06Z" stroke="#3A3734" stroke-width="2" stroke-miterlimit="10" stroke-linecap="round" stroke-linejoin="round"/>
<path id="Vector_156" d="M348.44 432.53L351.57 429.97L363.51 430.06" stroke="#3A3734" stroke-width="2" stroke-miterlimit="10" stroke-linecap="round" stroke-linejoin="round"/>
<path id="Vector_157" d="M350.24 437.85H343.17V440.6H350.24V437.85Z" stroke="#3A3734" stroke-width="2" stroke-miterlimit="10" stroke-linecap="round" stroke-linejoin="round"/>
</g>
<g id="Group_37">
<path id="Vector_158" d="M564.26 435.6V432.96C564.26 429.61 561.55 426.9 558.2 426.9H528.83H518.54H518.26V470.94H518.54H528.83H564.26V468.3C564.26 464.95 561.55 462.24 558.2 462.24H529.83V435.6H564.26Z" stroke="#3A3734" stroke-width="2" stroke-miterlimit="10" stroke-linecap="round" stroke-linejoin="round"/>
<path id="Vector_159" d="M558.57 448.5C558.57 448.5 562.68 447.97 562.68 452.61C562.68 457.25 556.63 457.55 556.63 457.55" stroke="#3A3734" stroke-width="2" stroke-miterlimit="10" stroke-linecap="round" stroke-linejoin="round"/>
<path id="Vector_160" d="M551.92 462.23C554.39 460.26 556.19 458.21 556.68 455.23L558.09 446.49H535.09L536.5 455.23C536.99 458.21 538.79 460.27 541.26 462.23" stroke="#3A3734" stroke-width="2" stroke-miterlimit="10" stroke-linecap="round" stroke-linejoin="round"/>
<path id="Vector_161" d="M552.58 435.6H540.26V438.47H552.58V435.6Z" stroke="#3A3734" stroke-width="2" stroke-miterlimit="10" stroke-linecap="round" stroke-linejoin="round"/>
<path id="Vector_162" d="M523.91 439.62C525.103 439.62 526.07 438.653 526.07 437.46C526.07 436.267 525.103 435.3 523.91 435.3C522.717 435.3 521.75 436.267 521.75 437.46C521.75 438.653 522.717 439.62 523.91 439.62Z" stroke="#3A3734" stroke-width="2" stroke-miterlimit="10" stroke-linecap="round" stroke-linejoin="round"/>
<path id="Vector_163" d="M523.91 447.62C525.103 447.62 526.07 446.653 526.07 445.46C526.07 444.267 525.103 443.3 523.91 443.3C522.717 443.3 521.75 444.267 521.75 445.46C521.75 446.653 522.717 447.62 523.91 447.62Z" stroke="#3A3734" stroke-width="2" stroke-miterlimit="10" stroke-linecap="round" stroke-linejoin="round"/>
</g>
<g id="Group_38">
<path id="Vector_164" d="M259.19 296.11H238.22L234.22 260.64H263.19L259.19 296.11Z" stroke="#3A3734" stroke-width="2" stroke-miterlimit="10" stroke-linecap="round" stroke-linejoin="round"/>
<path id="Vector_165" d="M265.19 255.64H232.19V260.64H265.19V255.64Z" stroke="#3A3734" stroke-width="2" stroke-miterlimit="10" stroke-linecap="round" stroke-linejoin="round"/>
<path id="Vector_166" d="M261.19 251.98L236.19 249.98L234.19 255.64H263.19L261.19 251.98Z" stroke="#3A3734" stroke-width="2" stroke-miterlimit="10" stroke-linecap="round" stroke-linejoin="round"/>
<g id="Group_39">
<path id="Vector_167" d="M252.321 278.282C254.321 275.64 254.326 272.274 252.332 270.764C250.337 269.253 247.099 270.171 245.098 272.812C243.098 275.454 243.093 278.82 245.087 280.33C247.082 281.841 250.32 280.923 252.321 278.282Z" stroke="#3A3734" stroke-width="2" stroke-miterlimit="10" stroke-linecap="round" stroke-linejoin="round"/>
<path id="Vector_168" d="M252.35 271.18C252.35 271.18 248.86 273.07 248.63 275.14C248.4 277.21 247.34 278.11 244.59 279.88" stroke="#3A3734" stroke-width="2" stroke-miterlimit="10" stroke-linecap="round" stroke-linejoin="round"/>
</g>
</g>
<g id="Group_40">
<path id="Vector_169" d="M161.16 296.11H140.19L136.19 260.64H165.16L161.16 296.11Z" stroke="#3A3734" stroke-width="2" stroke-miterlimit="10" stroke-linecap="round" stroke-linejoin="round"/>
<path id="Vector_170" d="M167.16 255.64H134.16V260.64H167.16V255.64Z" stroke="#3A3734" stroke-width="2" stroke-miterlimit="10" stroke-linecap="round" stroke-linejoin="round"/>
<path id="Vector_171" d="M163.16 249.98H138.16L136.16 255.64H165.16L163.16 249.98Z" stroke="#3A3734" stroke-width="2" stroke-miterlimit="10" stroke-linecap="round" stroke-linejoin="round"/>
<g id="Group_41">
<path id="Vector_172" d="M154.443 278.284C156.443 275.642 156.448 272.276 154.453 270.766C152.459 269.256 149.22 270.173 147.22 272.814C145.219 275.456 145.215 278.822 147.209 280.332C149.204 281.843 152.442 280.926 154.443 278.284Z" stroke="#3A3734" stroke-width="2" stroke-miterlimit="10" stroke-linecap="round" stroke-linejoin="round"/>
<path id="Vector_173" d="M154.47 271.18C154.47 271.18 150.98 273.07 150.75 275.14C150.52 277.21 149.46 278.11 146.71 279.88" stroke="#3A3734" stroke-width="2" stroke-miterlimit="10" stroke-linecap="round" stroke-linejoin="round"/>
</g>
</g>
<g id="Group_42">
<path id="Vector_174" d="M271.16 432.06H226.23V443.36H271.16V432.06Z" stroke="#3A3734" stroke-width="2" stroke-miterlimit="10" stroke-linecap="round" stroke-linejoin="round"/>
<path id="Vector_175" d="M267.97 428.03H229.42V431.97H267.97V428.03Z" stroke="#3A3734" stroke-width="2" stroke-miterlimit="10" stroke-linecap="round" stroke-linejoin="round"/>
<path id="Vector_176" d="M265.11 443.36H232.27V466.81H265.11V443.36Z" stroke="#3A3734" stroke-width="2" stroke-miterlimit="10" stroke-linecap="round" stroke-linejoin="round"/>
<path id="Vector_177" d="M267.97 466.81H229.42V470.94H267.97V466.81Z" stroke="#3A3734" stroke-width="2" stroke-miterlimit="10" stroke-linecap="round" stroke-linejoin="round"/>
<path id="Vector_178" d="M254.66 455.44C254.66 455.44 258.83 454.49 258.83 458.01C258.83 460.41 254.66 462.56 254.66 462.56" stroke="#3A3734" stroke-width="2" stroke-miterlimit="10" stroke-linecap="round" stroke-linejoin="round"/>
<path id="Vector_179" d="M251.05 466.81C251.63 466.81 252.18 466.54 252.68 466.16C253.97 465.17 254.66 463.64 254.66 462.06V453.97H248.4H242.14V462.06C242.14 463.64 242.83 465.18 244.12 466.16C244.62 466.54 245.17 466.81 245.75 466.81" stroke="#3A3734" stroke-width="2" stroke-miterlimit="10" stroke-linecap="round" stroke-linejoin="round"/>
<path id="Vector_180" d="M252.28 443.36H244.66V450.29H252.28V443.36Z" stroke="#3A3734" stroke-width="2" stroke-miterlimit="10" stroke-linecap="round" stroke-linejoin="round"/>
<path id="Vector_181" d="M252.48 445.95H261.29C262.11 445.95 262.78 446.62 262.78 447.44C262.78 448.26 262.11 448.93 261.29 448.93H252.48" stroke="#3A3734" stroke-width="2" stroke-miterlimit="10" stroke-linecap="round" stroke-linejoin="round"/>
<path id="Vector_182" d="M236.53 440.46C238.049 440.46 239.28 439.229 239.28 437.71C239.28 436.191 238.049 434.96 236.53 434.96C235.011 434.96 233.78 436.191 233.78 437.71C233.78 439.229 235.011 440.46 236.53 440.46Z" stroke="#3A3734" stroke-width="2" stroke-miterlimit="10" stroke-linecap="round" stroke-linejoin="round"/>
<path id="Vector_183" d="M243.91 437.71H246.91" stroke="#3A3734" stroke-width="2" stroke-miterlimit="10" stroke-linecap="round" stroke-linejoin="round"/>
<path id="Vector_184" d="M249.91 437.71H252.91" stroke="#3A3734" stroke-width="2" stroke-miterlimit="10" stroke-linecap="round" stroke-linejoin="round"/>
<path id="Vector_185" d="M255.91 437.71H258.91" stroke="#3A3734" stroke-width="2" stroke-miterlimit="10" stroke-linecap="round" stroke-linejoin="round"/>
<path id="Vector_186" d="M232.74 437.71H240.16" stroke="#3A3734" stroke-width="2" stroke-miterlimit="10" stroke-linecap="round" stroke-linejoin="round"/>
</g>
<g id="Group_43">
<path id="Vector_187" d="M454.87 470.94H431.52C429.88 470.94 428.52 469.67 428.41 468.03L425.94 430.85C425.82 429.05 427.25 427.53 429.05 427.53H457.34C459.14 427.53 460.57 429.05 460.45 430.85L457.98 468.03C457.87 469.66 456.51 470.94 454.87 470.94Z" stroke="#3A3734" stroke-width="2" stroke-miterlimit="10" stroke-linecap="round" stroke-linejoin="round"/>
<path id="Vector_188" d="M428.33 464.96H458.18" stroke="#3A3734" stroke-width="2" stroke-miterlimit="10" stroke-linecap="round" stroke-linejoin="round"/>
<path id="Vector_189" d="M427.43 442.81H458.95" stroke="#3A3734" stroke-width="2" stroke-miterlimit="10" stroke-linecap="round" stroke-linejoin="round"/>
<path id="Vector_190" d="M451.16 434.94H435.19V442.99H451.16V434.94Z" stroke="#3A3734" stroke-width="2" stroke-miterlimit="10" stroke-linecap="round" stroke-linejoin="round"/>
<path id="Vector_191" d="M448.89 442.99H437.46V445.98H448.89V442.99Z" stroke="#3A3734" stroke-width="2" stroke-miterlimit="10" stroke-linecap="round" stroke-linejoin="round"/>
<path id="Vector_192" d="M444.64 445.98H441.71V448.68H444.64V445.98Z" stroke="#3A3734" stroke-width="2" stroke-miterlimit="10" stroke-linecap="round" stroke-linejoin="round"/>
<path id="Vector_193" d="M451.22 455.66C451.22 455.66 453.92 455.31 453.92 458.36C453.92 461.4 449.96 461.6 449.96 461.6" stroke="#3A3734" stroke-width="2" stroke-miterlimit="10" stroke-linecap="round" stroke-linejoin="round"/>
<path id="Vector_194" d="M446.86 464.66C448.48 463.37 449.66 462.02 449.98 460.07L450.9 454.34H435.83L436.75 460.07C437.07 462.02 438.25 463.37 439.87 464.66" stroke="#3A3734" stroke-width="2" stroke-miterlimit="10" stroke-linecap="round" stroke-linejoin="round"/>
</g>
</g>
</svg>
