<svg width="49" height="55" viewBox="0 0 49 55" fill="none" xmlns="http://www.w3.org/2000/svg">
<path d="M30.7172 43.6693C32.9401 38.571 29.2671 32.0509 22.5134 29.1061C15.7596 26.1613 8.48253 27.907 6.2596 33.0053C4.03666 38.1035 7.70963 44.6237 14.4634 47.5684C21.2172 50.5132 28.4942 48.7675 30.7172 43.6693Z" stroke="#3A3734" stroke-width="2" stroke-miterlimit="10" stroke-linecap="round" stroke-linejoin="round"/>
<path d="M7.15002 32.76C7.15002 32.76 13.04 39.31 17.64 38.73C22.24 38.15 24.72 39.96 29.98 44.98" stroke="#3A3734" stroke-width="2" stroke-miterlimit="10" stroke-linecap="round" stroke-linejoin="round"/>
<path d="M21.29 28.37C21.36 23.42 26.13 19.19 32.72 17.98C39.97 16.65 46.65 20.01 47.66 25.48C48.67 30.95 43.61 36.46 36.36 37.79C34.55 38.12 32.77 38.16 31.11 37.95" stroke="#3A3734" stroke-width="2" stroke-miterlimit="10" stroke-linecap="round" stroke-linejoin="round"/>
<path d="M47.05 26.18C47.05 26.18 38.5 24.04 35.02 27.09C31.53 30.14 28.79 29.98 21.62 28.75" stroke="#3A3734" stroke-width="2" stroke-miterlimit="10" stroke-linecap="round" stroke-linejoin="round"/>
<path d="M21.6888 22.0254C28.3596 20.8006 33.0178 15.7254 32.0932 10.6897C31.1686 5.65398 25.0113 2.56466 18.3404 3.7895C11.6696 5.01433 7.01139 10.0895 7.936 15.1252C8.86062 20.161 15.0179 23.2503 21.6888 22.0254Z" stroke="#3A3734" stroke-width="2" stroke-miterlimit="10" stroke-linecap="round" stroke-linejoin="round"/>
<path d="M31.5401 11.34C31.5401 11.34 23.6701 9.36999 20.4601 12.18C17.2501 14.99 14.4201 14.88 7.82007 13.75" stroke="#3A3734" stroke-width="2" stroke-miterlimit="10" stroke-linecap="round" stroke-linejoin="round"/>
</svg>
